<?xml version="1.0" encoding="utf-8"?>
<!-- Generator: Adobe Illustrator 16.0.0, SVG Export Plug-In . SVG Version: 6.00 Build 0)  -->
<!DOCTYPE svg PUBLIC "-//W3C//DTD SVG 1.1//EN" "http://www.w3.org/Graphics/SVG/1.1/DTD/svg11.dtd">
<svg version="1.1" id="Layer_1" xmlns="http://www.w3.org/2000/svg" xmlns:xlink="http://www.w3.org/1999/xlink" x="0px" y="0px"
	 width="1200px" height="281.481px" viewBox="0 0 1200 281.481" enable-background="new 0 0 1200 281.481" xml:space="preserve">
<g>
	<path fill="#FFFFFF" d="M316.523,220.173h13.566c14.301,0,25.613-4.715,33.996-14.352c8.379-9.535,12.52-22.523,12.52-38.973
		c0-16.812-4.191-29.855-12.574-39.281c-8.43-9.324-20.113-13.988-35.094-13.988h-12.414V220.173L316.523,220.173z M271.637,256.419
		V77.333h54.945c12.52,0,23.203,0.891,31.949,2.828c8.75,1.887,16.344,4.871,22.785,8.906c13.359,8.434,23.469,19.273,30.328,32.422
		c6.914,13.148,10.32,28.336,10.32,45.465c0,16.449-3.457,31.324-10.477,44.418s-17.391,24.199-31.164,33.211
		c-5.922,3.875-13.41,6.809-22.473,8.797c-9.008,2.098-19.434,3.039-31.27,3.039H271.637L271.637,256.419z"/>
	<path fill="#FFFFFF" d="M507.762,259.458c-19.59,0-35.461-6.078-47.559-18.125c-12.102-12.152-18.125-28.074-18.125-47.664
		s6.023-35.461,18.07-47.664c12.102-12.102,27.918-18.176,47.613-18.176c19.484,0,35.355,6.074,47.562,18.277
		c12.098,12.152,18.176,27.973,18.176,47.562c0,19.484-6.078,35.305-18.281,47.457C543.066,253.38,527.246,259.458,507.762,259.458
		L507.762,259.458z M507.762,225.095c7.332,0,13.199-2.828,17.703-8.59c4.402-5.656,6.652-13.305,6.652-22.836
		c0-9.535-2.25-17.18-6.652-22.941c-4.398-5.66-10.316-8.488-17.703-8.488c-7.176,0-12.988,2.934-17.496,8.695
		c-4.555,5.762-6.809,13.41-6.809,22.734c0,9.531,2.254,17.074,6.758,22.836C494.668,222.267,500.535,225.095,507.762,225.095
		L507.762,225.095z"/>
	<polygon fill="#FFFFFF" points="599.742,256.419 599.742,77.806 640.699,77.806 640.699,256.419 599.742,256.419 	"/>
	<path fill="#84A4D5" d="M786.316,237.876c-7.23,7.438-15.086,12.887-23.57,16.344c-8.488,3.562-18.02,5.238-28.496,5.238
		c-20.219,0-36.457-5.973-48.922-18.125c-12.465-12.047-18.75-27.969-18.75-47.664c0-19.59,6.285-35.461,18.75-47.664
		c12.363-12.102,28.703-18.176,48.922-18.176c9.953,0,19.066,1.516,27.133,4.555c8.172,3.039,15.609,7.648,22.418,13.828
		l-24.305,26.922c-3.141-3.559-6.703-6.285-10.578-8.168c-3.879-1.781-7.961-2.727-12.152-2.727c-8.172,0-15.086,2.934-20.535,8.906
		c-5.445,5.867-8.168,13.41-8.168,22.523c0,9.219,2.723,16.762,8.066,22.629c5.445,5.863,12.359,8.797,20.637,8.797
		c5.027,0,9.637-1.254,13.934-3.77c4.293-2.516,7.75-5.973,10.578-10.477L786.316,237.876L786.316,237.876z"/>
	<path fill="#FFFFFF" d="M842.992,183.716h53.531c-0.945-8.066-3.879-14.352-8.695-18.75c-4.82-4.508-11-6.758-18.543-6.758
		c-7.438,0-13.516,2.355-18.227,6.965C846.238,169.782,843.617,175.966,842.992,183.716L842.992,183.716z M934.863,222.372
		c-5.238,11.734-13.512,20.848-24.828,27.344c-11.207,6.492-24.512,9.742-39.703,9.742c-20.848,0-37.609-5.973-50.387-17.914
		c-12.676-11.941-19.066-27.656-19.066-47.141c0-19.906,6.285-35.934,18.75-48.191s28.914-18.383,49.34-18.383
		c21.688,0,38.555,6.336,50.707,19.012c12.148,12.676,18.227,30.379,18.227,53.008v3.039h-94.387
		c0.73,7.855,3.457,14.039,8.273,18.438c4.82,4.398,11.211,6.598,19.066,6.598c5.656,0,10.688-1.152,14.875-3.457
		c4.297-2.199,7.441-5.551,9.641-9.844L934.863,222.372L934.863,222.372z"/>
	<path fill="#FFFFFF" d="M963.883,256.419V130.864h39.809v22.941c3.562-8.59,8.066-14.98,13.617-19.062
		c5.449-4.141,12.258-6.234,20.43-6.234c1.258,0,2.199,0,2.828,0.051c0.629,0.055,1.152,0.105,1.676,0.211l0.105,43.316
		c-2.934-0.629-5.344-1.047-7.23-1.359c-1.988-0.211-3.562-0.316-4.922-0.316c-9.219,0-15.715,2.723-19.59,8.172
		s-5.762,14.98-5.762,28.598v49.238H963.883L963.883,256.419z"/>
	<path fill="#FFFFFF" d="M1124.898,227.505c7.438,0,13.723-3.246,18.855-9.742c5.133-6.391,7.75-14.457,7.75-24.199
		s-2.617-17.809-7.75-24.305c-5.133-6.391-11.418-9.637-18.855-9.637c-7.648,0-13.934,3.246-18.965,9.531
		c-5.027,6.391-7.539,14.457-7.539,24.41c0,9.848,2.512,17.914,7.645,24.305C1111.07,224.259,1117.355,227.505,1124.898,227.505
		L1124.898,227.505z M1150.352,256.419v-17.074c-2.406,6.18-6.492,10.895-12.254,14.246c-5.762,3.246-12.887,4.922-21.266,4.922
		c-8.172,0-16.031-1.57-23.363-4.711c-7.438-3.25-13.934-7.859-19.695-13.828c-5.445-5.867-9.637-12.781-12.465-20.641
		c-2.828-7.855-4.297-16.551-4.297-25.77c0-9.637,1.258-18.332,3.773-25.77c2.617-7.543,6.598-14.195,11.941-20.113
		c5.656-6.234,12.152-10.949,19.59-14.25c7.332-3.246,15.191-4.922,23.465-4.922c8.277,0,15.402,1.625,21.477,4.766
		c6.078,3.145,10.789,7.855,14.246,14.039v-16.449h39.285v125.555H1150.352L1150.352,256.419z"/>
	<g>
		<path fill="#DB1F26" d="M110.988,145.06c0,0,30.117-21.895,26.715-44.051c0,0-0.789-19.273-27.238-33.941l-20.43-13.461
			l-5.551-4.348c0,0-4.926-3.145-4.398-9.586c0,0-0.105-8.695,1.254-16.656c0,0,0.367-7.281-4.977-8.906
			c-5.34-1.621-9.531,0.785-13.668,2.828c-4.297,2.098-8.434,7.387-8.906,8.066c-0.418,0.629-5.238,7.281-5.762,12.102
			c-0.418,3.824-0.68,18.75,4.715,28.074c0,0,9.062,18.125,12.57,23.625c3.512,5.5,13.41,21.371,15.715,25.82
			c1.832,3.617,4.715,12.363,5.707,18.176c0,0,7.18,20.062-20.898,41.906l-38.762,26.711c0,0-16.445,9.535-16.234,22.734
			c0,0-1.941,12.047,17.285,22.941c0,0,15.504,9.43,37.504,5.027c0,0,13.93-3.77,28.598-18.961c0,0,24.672-23.988,15.715-61.281
			c0,0,25.09,7.016,27.133,31.949c0,0,0.73,15.609-0.523,22.418c0,0-2.566,24.305,4.711,30.066c0,0,13.043,14.039,29.387,13.621
			c0,0,6.703,0.836,13.148-3.25c0,0,20.113-13.828,28.809-25.035c4.348-5.66,10.004-11.945,13.094-25.352
			c1.988-8.488,4.453-19.488-9.43-33.945c-4.609-4.711-11.207-11.312-21.473-15.711c-5.082-2.199-13.934-6.602-20.48-8.172
			c-6.551-1.57-9.168-3.508-32.371-8.172L110.988,145.06z"/>
	</g>
</g>
</svg>
